<?xml version="1.0" standalone="no"?>
<!DOCTYPE svg PUBLIC "-//W3C//DTD SVG 20010904//EN"
 "http://www.w3.org/TR/2001/REC-SVG-20010904/DTD/svg10.dtd">
<svg version="1.0" xmlns="http://www.w3.org/2000/svg"
 width="700.000000pt" height="700.000000pt" viewBox="0 0 700.000000 700.000000"
 preserveAspectRatio="xMidYMid meet">
<metadata>
Created by potrace 1.11, written by Peter Selinger 2001-2013
</metadata>
<g transform="translate(0.000000,700.000000) scale(0.100000,-0.100000)"
fill="#000000" stroke="none">
<path d="M4352 4906 l705 -705 -698 -697 c-384 -384 -696 -700 -694 -703 2 -5
915 -6 961 -2 13 1 1404 1391 1404 1403 0 4 -315 323 -700 708 l-700 700 -491
0 -492 0 705 -704z"/>
<path d="M2370 4202 c-15 -5 -1400 -1393 -1400 -1403 0 -5 315 -324 700 -709
l701 -700 491 0 492 0 -702 702 c-386 386 -702 704 -702 707 0 3 313 319 695
701 382 382 695 697 695 700 0 5 -954 7 -970 2z"/>
<path d="M3010 3503 l-705 -703 245 -245 245 -245 943 942 c518 519 944 945
946 948 2 3 -215 5 -482 6 l-487 0 -705 -703z"/>
</g>
</svg>
